<mxfile host="app.diagrams.net" modified="2023-08-18T12:15:33.796Z" agent="Mozilla/5.0 (Macintosh; Intel Mac OS X 10_15_7) AppleWebKit/537.36 (KHTML, like Gecko) Chrome/114.0.0.0 Safari/537.36" etag="tJrhZ70iJvgxdnJaZONd" version="21.1.2" type="github">
  <diagram id="prtHgNgQTEPvFCAcTncT" name="Page-1">
    <mxGraphModel dx="6797" dy="3080" grid="1" gridSize="10" guides="1" tooltips="1" connect="1" arrows="1" fold="1" page="1" pageScale="1" pageWidth="827" pageHeight="1169" math="0" shadow="0">
      <root>
        <mxCell id="0" />
        <mxCell id="1" parent="0" />
        <mxCell id="FrziFFQu4rmucwJ09yhm-5" value="Use case &lt;br&gt;Diagram" style="rounded=0;whiteSpace=wrap;html=1;fillColor=#f5f5f5;strokeColor=#666666;fontColor=#333333;" parent="1" vertex="1">
          <mxGeometry x="20" y="10" width="120" height="60" as="geometry" />
        </mxCell>
        <mxCell id="FrziFFQu4rmucwJ09yhm-16" value="User" style="rounded=0;whiteSpace=wrap;html=1;fillColor=#d5e8d4;strokeColor=#82b366;" parent="1" vertex="1">
          <mxGeometry x="130" y="80" width="100" height="40" as="geometry" />
        </mxCell>
        <mxCell id="FrziFFQu4rmucwJ09yhm-17" value="Registration" style="rounded=0;whiteSpace=wrap;html=1;fillColor=#d5e8d4;strokeColor=#82b366;" parent="1" vertex="1">
          <mxGeometry x="30" y="160" width="100" height="40" as="geometry" />
        </mxCell>
        <mxCell id="FrziFFQu4rmucwJ09yhm-18" value="Login" style="rounded=0;whiteSpace=wrap;html=1;fillColor=#d5e8d4;strokeColor=#82b366;" parent="1" vertex="1">
          <mxGeometry x="280" y="160" width="100" height="40" as="geometry" />
        </mxCell>
        <mxCell id="FrziFFQu4rmucwJ09yhm-23" value="" style="edgeStyle=segmentEdgeStyle;endArrow=classic;html=1;curved=0;rounded=0;endSize=8;startSize=8;" parent="1" edge="1">
          <mxGeometry width="50" height="50" relative="1" as="geometry">
            <mxPoint x="130" y="110" as="sourcePoint" />
            <mxPoint x="80" y="160" as="targetPoint" />
          </mxGeometry>
        </mxCell>
        <mxCell id="FrziFFQu4rmucwJ09yhm-27" value="" style="edgeStyle=segmentEdgeStyle;endArrow=classic;html=1;curved=0;rounded=0;endSize=8;startSize=8;" parent="1" target="FrziFFQu4rmucwJ09yhm-18" edge="1">
          <mxGeometry width="50" height="50" relative="1" as="geometry">
            <mxPoint x="230" y="110" as="sourcePoint" />
            <mxPoint x="280" y="160" as="targetPoint" />
            <Array as="points">
              <mxPoint x="330" y="110" />
            </Array>
          </mxGeometry>
        </mxCell>
        <mxCell id="FrziFFQu4rmucwJ09yhm-30" value="Retry" style="rounded=0;whiteSpace=wrap;html=1;fillColor=#d5e8d4;strokeColor=#82b366;" parent="1" vertex="1">
          <mxGeometry x="-70" y="240" width="100" height="40" as="geometry" />
        </mxCell>
        <mxCell id="FrziFFQu4rmucwJ09yhm-31" value="Success" style="rounded=0;whiteSpace=wrap;html=1;fillColor=#d5e8d4;strokeColor=#82b366;" parent="1" vertex="1">
          <mxGeometry x="130" y="240" width="100" height="40" as="geometry" />
        </mxCell>
        <mxCell id="FrziFFQu4rmucwJ09yhm-32" value="" style="edgeStyle=segmentEdgeStyle;endArrow=classic;html=1;curved=0;rounded=0;endSize=8;startSize=8;" parent="1" edge="1">
          <mxGeometry width="50" height="50" relative="1" as="geometry">
            <mxPoint x="30" y="190" as="sourcePoint" />
            <mxPoint x="-20" y="240" as="targetPoint" />
          </mxGeometry>
        </mxCell>
        <mxCell id="FrziFFQu4rmucwJ09yhm-33" value="" style="edgeStyle=segmentEdgeStyle;endArrow=classic;html=1;curved=0;rounded=0;endSize=8;startSize=8;" parent="1" edge="1">
          <mxGeometry width="50" height="50" relative="1" as="geometry">
            <mxPoint x="130" y="190" as="sourcePoint" />
            <mxPoint x="180" y="240" as="targetPoint" />
          </mxGeometry>
        </mxCell>
        <mxCell id="FrziFFQu4rmucwJ09yhm-34" value="Password mismatch" style="rounded=0;whiteSpace=wrap;html=1;fillColor=#d5e8d4;strokeColor=#82b366;" parent="1" vertex="1">
          <mxGeometry x="-170" y="310" width="100" height="40" as="geometry" />
        </mxCell>
        <mxCell id="FrziFFQu4rmucwJ09yhm-35" value="Username taken." style="rounded=0;whiteSpace=wrap;html=1;fillColor=#d5e8d4;strokeColor=#82b366;" parent="1" vertex="1">
          <mxGeometry x="30" y="310" width="100" height="40" as="geometry" />
        </mxCell>
        <mxCell id="FrziFFQu4rmucwJ09yhm-36" value="" style="edgeStyle=segmentEdgeStyle;endArrow=classic;html=1;curved=0;rounded=0;endSize=8;startSize=8;" parent="1" edge="1">
          <mxGeometry width="50" height="50" relative="1" as="geometry">
            <mxPoint x="-70" y="260" as="sourcePoint" />
            <mxPoint x="-120" y="310" as="targetPoint" />
          </mxGeometry>
        </mxCell>
        <mxCell id="FrziFFQu4rmucwJ09yhm-37" value="" style="edgeStyle=segmentEdgeStyle;endArrow=classic;html=1;curved=0;rounded=0;endSize=8;startSize=8;" parent="1" edge="1">
          <mxGeometry width="50" height="50" relative="1" as="geometry">
            <mxPoint x="30" y="260" as="sourcePoint" />
            <mxPoint x="80" y="310" as="targetPoint" />
          </mxGeometry>
        </mxCell>
        <mxCell id="FrziFFQu4rmucwJ09yhm-38" value="Email taken ?" style="rounded=0;whiteSpace=wrap;html=1;fillColor=#f8cecc;strokeColor=#b85450;" parent="1" vertex="1">
          <mxGeometry x="-70" y="390" width="100" height="40" as="geometry" />
        </mxCell>
        <mxCell id="FrziFFQu4rmucwJ09yhm-40" value="" style="endArrow=classic;html=1;rounded=0;exitX=0.5;exitY=1;exitDx=0;exitDy=0;entryX=0.5;entryY=0;entryDx=0;entryDy=0;" parent="1" source="FrziFFQu4rmucwJ09yhm-30" target="FrziFFQu4rmucwJ09yhm-38" edge="1">
          <mxGeometry width="50" height="50" relative="1" as="geometry">
            <mxPoint x="-40" y="380" as="sourcePoint" />
            <mxPoint x="10" y="330" as="targetPoint" />
          </mxGeometry>
        </mxCell>
        <mxCell id="FrziFFQu4rmucwJ09yhm-41" value="Email confirmation." style="rounded=0;whiteSpace=wrap;html=1;fillColor=#f8cecc;strokeColor=#b85450;" parent="1" vertex="1">
          <mxGeometry x="130" y="360" width="100" height="40" as="geometry" />
        </mxCell>
        <mxCell id="FrziFFQu4rmucwJ09yhm-42" value="" style="endArrow=classic;html=1;rounded=0;" parent="1" source="FrziFFQu4rmucwJ09yhm-31" target="FrziFFQu4rmucwJ09yhm-41" edge="1">
          <mxGeometry width="50" height="50" relative="1" as="geometry">
            <mxPoint x="179.58" y="280" as="sourcePoint" />
            <mxPoint x="180" y="360" as="targetPoint" />
          </mxGeometry>
        </mxCell>
        <mxCell id="FrziFFQu4rmucwJ09yhm-43" value="Forgot password?" style="rounded=0;whiteSpace=wrap;html=1;fillColor=#f8cecc;strokeColor=#b85450;" parent="1" vertex="1">
          <mxGeometry x="240" y="240" width="100" height="40" as="geometry" />
        </mxCell>
        <mxCell id="FrziFFQu4rmucwJ09yhm-44" value="Successful authentication." style="rounded=0;whiteSpace=wrap;html=1;fillColor=#d5e8d4;strokeColor=#82b366;" parent="1" vertex="1">
          <mxGeometry x="560" y="240" width="100" height="40" as="geometry" />
        </mxCell>
        <mxCell id="FrziFFQu4rmucwJ09yhm-45" value="" style="edgeStyle=segmentEdgeStyle;endArrow=classic;html=1;curved=0;rounded=0;endSize=8;startSize=8;" parent="1" source="FrziFFQu4rmucwJ09yhm-18" target="FrziFFQu4rmucwJ09yhm-43" edge="1">
          <mxGeometry width="50" height="50" relative="1" as="geometry">
            <mxPoint x="280" y="180" as="sourcePoint" />
            <mxPoint x="230" y="230" as="targetPoint" />
            <Array as="points">
              <mxPoint x="270" y="180" />
            </Array>
          </mxGeometry>
        </mxCell>
        <mxCell id="FrziFFQu4rmucwJ09yhm-46" value="" style="edgeStyle=segmentEdgeStyle;endArrow=classic;html=1;curved=0;rounded=0;endSize=8;startSize=8;" parent="1" target="FrziFFQu4rmucwJ09yhm-44" edge="1">
          <mxGeometry width="50" height="50" relative="1" as="geometry">
            <mxPoint x="380" y="180" as="sourcePoint" />
            <mxPoint x="430" y="230" as="targetPoint" />
            <Array as="points">
              <mxPoint x="610" y="180" />
            </Array>
          </mxGeometry>
        </mxCell>
        <mxCell id="FrziFFQu4rmucwJ09yhm-48" value="Authentication failed." style="rounded=0;whiteSpace=wrap;html=1;fillColor=#d5e8d4;strokeColor=#82b366;" parent="1" vertex="1">
          <mxGeometry x="400" y="240" width="100" height="40" as="geometry" />
        </mxCell>
        <mxCell id="FrziFFQu4rmucwJ09yhm-49" value="" style="edgeStyle=segmentEdgeStyle;endArrow=classic;html=1;curved=0;rounded=0;endSize=8;startSize=8;" parent="1" source="FrziFFQu4rmucwJ09yhm-18" target="FrziFFQu4rmucwJ09yhm-48" edge="1">
          <mxGeometry width="50" height="50" relative="1" as="geometry">
            <mxPoint x="390" y="190" as="sourcePoint" />
            <mxPoint x="620" y="250" as="targetPoint" />
            <Array as="points">
              <mxPoint x="450" y="190" />
            </Array>
          </mxGeometry>
        </mxCell>
        <mxCell id="FrziFFQu4rmucwJ09yhm-50" value="Types of boxes" style="rounded=0;whiteSpace=wrap;html=1;" parent="1" vertex="1">
          <mxGeometry x="-550" y="80" width="120" height="60" as="geometry" />
        </mxCell>
        <mxCell id="FrziFFQu4rmucwJ09yhm-51" value="Done." style="rounded=0;whiteSpace=wrap;html=1;fillColor=#d5e8d4;strokeColor=#82b366;" parent="1" vertex="1">
          <mxGeometry x="-550" y="160" width="120" height="60" as="geometry" />
        </mxCell>
        <mxCell id="FrziFFQu4rmucwJ09yhm-52" value="In progress." style="rounded=0;whiteSpace=wrap;html=1;fillColor=#fff2cc;strokeColor=#d6b656;" parent="1" vertex="1">
          <mxGeometry x="-550" y="240" width="120" height="60" as="geometry" />
        </mxCell>
        <mxCell id="FrziFFQu4rmucwJ09yhm-55" value="Upcoming." style="rounded=0;whiteSpace=wrap;html=1;fillColor=#f8cecc;strokeColor=#b85450;" parent="1" vertex="1">
          <mxGeometry x="-550" y="320" width="120" height="60" as="geometry" />
        </mxCell>
        <mxCell id="53N5OKguzcm_HKgQLKbk-6" value="Changing Password" style="rounded=0;whiteSpace=wrap;html=1;fillColor=#f8cecc;strokeColor=#b85450;" vertex="1" parent="1">
          <mxGeometry x="-827" y="770" width="120" height="60" as="geometry" />
        </mxCell>
        <mxCell id="53N5OKguzcm_HKgQLKbk-7" value="Changing UserName" style="rounded=0;whiteSpace=wrap;html=1;fillColor=#f8cecc;strokeColor=#b85450;" vertex="1" parent="1">
          <mxGeometry x="-690" y="770" width="120" height="60" as="geometry" />
        </mxCell>
        <mxCell id="53N5OKguzcm_HKgQLKbk-13" value="Leave Chats" style="rounded=0;whiteSpace=wrap;html=1;fillColor=#f8cecc;strokeColor=#b85450;" vertex="1" parent="1">
          <mxGeometry x="-260" y="770" width="120" height="60" as="geometry" />
        </mxCell>
        <mxCell id="53N5OKguzcm_HKgQLKbk-20" value="" style="group" vertex="1" connectable="0" parent="1">
          <mxGeometry x="-120" y="770" width="120" height="146" as="geometry" />
        </mxCell>
        <mxCell id="53N5OKguzcm_HKgQLKbk-11" value="Delete Chat Messages" style="rounded=0;whiteSpace=wrap;html=1;fillColor=#f8cecc;strokeColor=#b85450;" vertex="1" parent="53N5OKguzcm_HKgQLKbk-20">
          <mxGeometry y="86" width="120" height="60" as="geometry" />
        </mxCell>
        <mxCell id="53N5OKguzcm_HKgQLKbk-18" style="edgeStyle=orthogonalEdgeStyle;rounded=0;orthogonalLoop=1;jettySize=auto;html=1;entryX=0.5;entryY=0;entryDx=0;entryDy=0;" edge="1" parent="53N5OKguzcm_HKgQLKbk-20" source="53N5OKguzcm_HKgQLKbk-12" target="53N5OKguzcm_HKgQLKbk-11">
          <mxGeometry relative="1" as="geometry" />
        </mxCell>
        <mxCell id="53N5OKguzcm_HKgQLKbk-12" value="Update Chat Messages" style="rounded=0;whiteSpace=wrap;html=1;fillColor=#f8cecc;strokeColor=#b85450;" vertex="1" parent="53N5OKguzcm_HKgQLKbk-20">
          <mxGeometry width="120" height="60" as="geometry" />
        </mxCell>
        <mxCell id="53N5OKguzcm_HKgQLKbk-21" value="" style="group" vertex="1" connectable="0" parent="1">
          <mxGeometry x="-403" y="770" width="120" height="140" as="geometry" />
        </mxCell>
        <mxCell id="53N5OKguzcm_HKgQLKbk-14" value="Remove Users From Chat" style="rounded=0;whiteSpace=wrap;html=1;fillColor=#f8cecc;strokeColor=#b85450;" vertex="1" parent="53N5OKguzcm_HKgQLKbk-21">
          <mxGeometry y="80" width="120" height="60" as="geometry" />
        </mxCell>
        <mxCell id="53N5OKguzcm_HKgQLKbk-16" style="edgeStyle=orthogonalEdgeStyle;rounded=0;orthogonalLoop=1;jettySize=auto;html=1;exitX=0.5;exitY=1;exitDx=0;exitDy=0;entryX=0.5;entryY=0;entryDx=0;entryDy=0;" edge="1" parent="53N5OKguzcm_HKgQLKbk-21" source="53N5OKguzcm_HKgQLKbk-15" target="53N5OKguzcm_HKgQLKbk-14">
          <mxGeometry relative="1" as="geometry" />
        </mxCell>
        <mxCell id="53N5OKguzcm_HKgQLKbk-15" value="Chat Admin Role" style="rounded=0;whiteSpace=wrap;html=1;fillColor=#f8cecc;strokeColor=#b85450;" vertex="1" parent="53N5OKguzcm_HKgQLKbk-21">
          <mxGeometry width="120" height="60" as="geometry" />
        </mxCell>
        <mxCell id="53N5OKguzcm_HKgQLKbk-22" value="" style="group" vertex="1" connectable="0" parent="1">
          <mxGeometry x="20" y="770" width="120" height="140" as="geometry" />
        </mxCell>
        <mxCell id="53N5OKguzcm_HKgQLKbk-8" value="Profile" style="rounded=0;whiteSpace=wrap;html=1;fillColor=#f8cecc;strokeColor=#b85450;" vertex="1" parent="53N5OKguzcm_HKgQLKbk-22">
          <mxGeometry width="120" height="60" as="geometry" />
        </mxCell>
        <mxCell id="53N5OKguzcm_HKgQLKbk-9" value="Profile Picture" style="rounded=0;whiteSpace=wrap;html=1;fillColor=#f8cecc;strokeColor=#b85450;" vertex="1" parent="53N5OKguzcm_HKgQLKbk-22">
          <mxGeometry y="80" width="120" height="60" as="geometry" />
        </mxCell>
        <mxCell id="53N5OKguzcm_HKgQLKbk-17" style="edgeStyle=orthogonalEdgeStyle;rounded=0;orthogonalLoop=1;jettySize=auto;html=1;exitX=0.5;exitY=1;exitDx=0;exitDy=0;entryX=0.5;entryY=0;entryDx=0;entryDy=0;" edge="1" parent="53N5OKguzcm_HKgQLKbk-22" source="53N5OKguzcm_HKgQLKbk-8" target="53N5OKguzcm_HKgQLKbk-9">
          <mxGeometry relative="1" as="geometry" />
        </mxCell>
        <mxCell id="53N5OKguzcm_HKgQLKbk-24" value="" style="group" vertex="1" connectable="0" parent="1">
          <mxGeometry x="-550" y="770" width="120" height="134" as="geometry" />
        </mxCell>
        <mxCell id="53N5OKguzcm_HKgQLKbk-3" value="Sending email verification" style="rounded=0;whiteSpace=wrap;html=1;fillColor=#f8cecc;strokeColor=#b85450;" vertex="1" parent="53N5OKguzcm_HKgQLKbk-24">
          <mxGeometry width="120" height="60" as="geometry" />
        </mxCell>
        <mxCell id="53N5OKguzcm_HKgQLKbk-5" value="Sending verification code on email" style="rounded=0;whiteSpace=wrap;html=1;fillColor=#f8cecc;strokeColor=#b85450;" vertex="1" parent="53N5OKguzcm_HKgQLKbk-24">
          <mxGeometry y="74" width="120" height="60" as="geometry" />
        </mxCell>
        <mxCell id="53N5OKguzcm_HKgQLKbk-23" style="edgeStyle=orthogonalEdgeStyle;rounded=0;orthogonalLoop=1;jettySize=auto;html=1;exitX=0.5;exitY=1;exitDx=0;exitDy=0;entryX=0.5;entryY=0;entryDx=0;entryDy=0;" edge="1" parent="53N5OKguzcm_HKgQLKbk-24" source="53N5OKguzcm_HKgQLKbk-3" target="53N5OKguzcm_HKgQLKbk-5">
          <mxGeometry relative="1" as="geometry" />
        </mxCell>
        <mxCell id="53N5OKguzcm_HKgQLKbk-25" value="User Profile Discription" style="rounded=0;whiteSpace=wrap;html=1;fillColor=#f8cecc;strokeColor=#b85450;" vertex="1" parent="1">
          <mxGeometry x="20" y="930" width="120" height="60" as="geometry" />
        </mxCell>
        <mxCell id="53N5OKguzcm_HKgQLKbk-26" style="edgeStyle=orthogonalEdgeStyle;rounded=0;orthogonalLoop=1;jettySize=auto;html=1;exitX=0.5;exitY=1;exitDx=0;exitDy=0;entryX=0.5;entryY=0;entryDx=0;entryDy=0;" edge="1" parent="1" source="53N5OKguzcm_HKgQLKbk-9" target="53N5OKguzcm_HKgQLKbk-25">
          <mxGeometry relative="1" as="geometry" />
        </mxCell>
        <mxCell id="53N5OKguzcm_HKgQLKbk-27" value="" style="shape=flexArrow;endArrow=classic;html=1;rounded=0;" edge="1" parent="1">
          <mxGeometry width="50" height="50" relative="1" as="geometry">
            <mxPoint x="-180" y="730" as="sourcePoint" />
            <mxPoint x="-360" y="730" as="targetPoint" />
          </mxGeometry>
        </mxCell>
        <mxCell id="53N5OKguzcm_HKgQLKbk-29" value="&lt;font style=&quot;font-size: 48px;&quot; face=&quot;Comic Sans MS&quot;&gt;Priority&lt;/font&gt;" style="text;html=1;strokeColor=none;fillColor=#FF6666;align=center;verticalAlign=middle;whiteSpace=wrap;rounded=0;" vertex="1" parent="1">
          <mxGeometry x="-350" y="630" width="170" height="90" as="geometry" />
        </mxCell>
      </root>
    </mxGraphModel>
  </diagram>
</mxfile>
